<svg width="162" height="35" viewBox="0 0 162 35" fill="none" xmlns="http://www.w3.org/2000/svg">
<path d="M46.343 24.0778C45.0715 24.0778 43.9657 23.9028 43.0255 23.5527C42.0853 23.2027 41.36 22.7091 40.8496 22.0719C40.3392 21.4346 40.084 20.7032 40.084 19.8774V19.7428C40.084 19.5992 40.1288 19.4825 40.2183 19.3928C40.3078 19.303 40.4242 19.2582 40.5675 19.2582H43.8716C44.194 19.2582 44.3552 19.312 44.3552 19.4197V19.5813C44.3552 19.9223 44.5387 20.205 44.9059 20.4294C45.273 20.6538 45.7431 20.766 46.3162 20.766C46.8176 20.766 47.2205 20.6807 47.525 20.5102C47.8294 20.3397 47.9816 20.1108 47.9816 19.8236C47.9816 19.5364 47.8205 19.3255 47.4981 19.1908C47.1758 19.0562 46.6654 18.9261 45.9669 18.8004C44.8387 18.585 43.9254 18.3248 43.2269 18.0196C42.3315 17.6426 41.6107 17.167 41.0645 16.5926C40.5183 16.0181 40.2452 15.2463 40.2452 14.277C40.2452 12.8769 40.7869 11.7684 41.8704 10.9517C42.9538 10.135 44.382 9.72661 46.155 9.72661C47.3549 9.72661 48.407 9.91957 49.3114 10.3055C50.2157 10.6914 50.9186 11.2344 51.4201 11.9345C51.9215 12.6345 52.1722 13.4423 52.1722 14.3578C52.1722 14.4475 52.1275 14.5238 52.0379 14.5866C51.9484 14.6495 51.832 14.6809 51.6887 14.6809H48.492C48.1697 14.6809 48.0085 14.627 48.0085 14.5193V14.3578C48.0085 14.0167 47.8473 13.7385 47.525 13.5231C47.2026 13.3077 46.7639 13.2 46.2087 13.2C45.7073 13.2 45.2998 13.2852 44.9864 13.4558C44.673 13.6263 44.5163 13.8641 44.5163 14.1693C44.5163 14.4744 44.6865 14.6943 45.0267 14.829C45.367 14.9636 45.9401 15.1117 46.746 15.2732C47.8384 15.4886 48.5726 15.6591 48.9487 15.7848C50.0411 16.1438 50.8963 16.6285 51.5141 17.2388C52.132 17.8491 52.4409 18.6658 52.4409 19.689C52.4409 21.0891 51.8902 22.1706 50.7888 22.9335C49.6874 23.6964 48.2055 24.0778 46.343 24.0778ZM59.7051 9.72661C60.887 9.72661 61.9615 9.92855 62.9286 10.3324C63.8957 10.7363 64.6568 11.2928 65.2119 12.0018C65.7671 12.7108 66.0447 13.4961 66.0447 14.3578V23.3777C66.0447 23.5213 65.9999 23.638 65.9104 23.7278C65.8208 23.8175 65.7044 23.8624 65.5612 23.8624H62.069C61.9257 23.8624 61.8093 23.8175 61.7198 23.7278C61.6302 23.638 61.5855 23.5213 61.5855 23.3777V22.8392C61.5855 22.7495 61.5631 22.6956 61.5183 22.6777C61.4735 22.6597 61.4243 22.6866 61.3706 22.7584C60.6542 23.638 59.4991 24.0778 57.9053 24.0778C56.4905 24.0778 55.3623 23.7412 54.5205 23.0681C53.6788 22.395 53.258 21.4032 53.258 20.0928C53.258 18.7107 53.737 17.6426 54.6952 16.8887C55.6533 16.1348 57.0367 15.7579 58.8455 15.7579H61.3974C61.5228 15.7579 61.5855 15.695 61.5855 15.5694V15.1117C61.5855 14.627 61.4288 14.2456 61.1154 13.9673C60.802 13.6891 60.3587 13.55 59.7857 13.55C59.3738 13.55 59.0201 13.6173 58.7246 13.7519C58.4291 13.8866 58.2187 14.0706 58.0933 14.3039C58.0038 14.4296 57.9187 14.5238 57.8381 14.5866C57.7575 14.6495 57.6545 14.6719 57.5292 14.6539L53.9296 14.1962C53.6072 14.1603 53.4639 14.0347 53.4998 13.8193C53.5893 13.0474 53.9117 12.3518 54.4668 11.7325C55.022 11.1133 55.7518 10.6241 56.6561 10.2651C57.5605 9.90611 58.5768 9.72661 59.7051 9.72661ZM59.2484 20.8737C59.9289 20.8737 60.4886 20.6987 60.9273 20.3486C61.3661 19.9986 61.5855 19.5364 61.5855 18.962V18.3696C61.5855 18.244 61.5228 18.1812 61.3974 18.1812H59.8394C59.1589 18.1812 58.635 18.2978 58.2679 18.5312C57.9008 18.7645 57.7172 19.1146 57.7172 19.5813C57.7172 19.9762 57.8515 20.2903 58.1202 20.5236C58.3888 20.757 58.7649 20.8737 59.2484 20.8737ZM75.4668 9.91509C75.6101 9.91509 75.7265 9.95996 75.816 10.0497C75.9056 10.1395 75.9503 10.2561 75.9503 10.3997V13.0923C75.9503 13.2359 75.9056 13.3525 75.816 13.4423C75.7265 13.5321 75.6101 13.5769 75.4668 13.5769H73.1566C73.0313 13.5769 72.9686 13.6398 72.9686 13.7654V23.3777C72.9686 23.5213 72.9238 23.638 72.8343 23.7278C72.7447 23.8175 72.6283 23.8624 72.485 23.8624H68.9929C68.8496 23.8624 68.7332 23.8175 68.6437 23.7278C68.5541 23.638 68.5094 23.5213 68.5094 23.3777V13.7654C68.5094 13.6398 68.4467 13.5769 68.3213 13.5769H67.0319C66.8886 13.5769 66.7722 13.5321 66.6827 13.4423C66.5931 13.3525 66.5484 13.2359 66.5484 13.0923V10.3997C66.5484 10.2561 66.5931 10.1395 66.6827 10.0497C66.7722 9.95996 66.8886 9.91509 67.0319 9.91509H68.3213C68.4467 9.91509 68.5094 9.85226 68.5094 9.72661V9.05348C68.5094 7.99441 68.6974 7.16423 69.0735 6.56289C69.4496 5.96156 70.0495 5.53973 70.8733 5.2974C71.6971 5.05507 72.8163 4.96084 74.2311 5.01469H75.1713C75.3146 5.01469 75.431 5.05956 75.5205 5.14931C75.6101 5.23906 75.6549 5.35574 75.6549 5.49934V7.62644C75.6549 7.77004 75.6101 7.88672 75.5205 7.97647C75.431 8.06622 75.3146 8.11109 75.1713 8.11109H74.2849C73.8013 8.147 73.4611 8.26367 73.2641 8.46112C73.0671 8.65858 72.9686 8.99065 72.9686 9.45736V9.72661C72.9686 9.85226 73.0313 9.91509 73.1566 9.91509H75.4668ZM83.2235 20.2813C83.7786 20.2813 84.2935 20.1961 84.7681 20.0255C85.2426 19.855 85.6411 19.6261 85.9635 19.3389C86.0709 19.2133 86.1873 19.1505 86.3127 19.1505C86.4201 19.1505 86.5276 19.2133 86.635 19.3389L88.3005 21.3314C88.408 21.4571 88.4617 21.5737 88.4617 21.6814C88.4617 21.8071 88.408 21.9238 88.3005 22.0315C87.6916 22.6777 86.9216 23.1803 85.9903 23.5393C85.0591 23.8983 84.0652 24.0778 83.0085 24.0778C81.7908 24.0778 80.7118 23.8579 79.7716 23.4181C78.8314 22.9783 78.0568 22.3635 77.4479 21.5737C76.463 20.3172 75.9705 18.7197 75.9705 16.781C75.9705 15.9194 76.069 15.1117 76.266 14.3578C76.66 12.9576 77.43 11.8313 78.5762 10.9786C79.7223 10.126 81.0655 9.69969 82.6056 9.69969C84.3965 9.69969 85.8426 10.2561 86.9439 11.3691C88.0453 12.482 88.7661 14.0346 89.1064 16.0271C89.178 16.5297 89.2318 17.0772 89.2676 17.6696C89.2676 17.9927 89.1064 18.1542 88.7841 18.1542H80.6715C80.6178 18.1542 80.5685 18.1722 80.5237 18.2081C80.479 18.244 80.4655 18.2978 80.4834 18.3696L80.6446 18.9081C80.8237 19.3389 81.1371 19.6755 81.5848 19.9178C82.0325 20.1602 82.5787 20.2813 83.2235 20.2813ZM82.525 13.55C81.6117 13.55 80.9938 13.9898 80.6715 14.8693C80.5998 15.0488 80.5551 15.1835 80.5372 15.2732V15.3271C80.5372 15.4348 80.5998 15.4886 80.7252 15.4886H84.4054C84.4771 15.4886 84.5263 15.4662 84.5532 15.4213C84.58 15.3764 84.5845 15.3271 84.5666 15.2732L84.4591 14.9232C84.3159 14.4924 84.0831 14.1558 83.7607 13.9135C83.4384 13.6712 83.0265 13.55 82.525 13.55ZM98.6628 10.4267C98.6628 10.2831 98.7076 10.1664 98.7972 10.0766C98.8867 9.98689 99.0031 9.94201 99.1464 9.94201H102.639C102.782 9.94201 102.898 9.98689 102.988 10.0766C103.077 10.1664 103.122 10.2831 103.122 10.4267V22.3007C103.122 24.7599 102.41 26.519 100.986 27.5781C99.5627 28.6371 97.7764 29.1667 95.6273 29.1667C94.9468 29.1667 94.1499 29.1038 93.2366 28.9782C92.9321 28.9243 92.7888 28.7448 92.8068 28.4397L92.9411 25.451C92.959 25.1099 93.147 24.9663 93.5052 25.0202C94.2215 25.1638 94.8483 25.2356 95.3856 25.2356C96.4064 25.2356 97.2078 25.0022 97.7898 24.5355C98.3718 24.0688 98.6628 23.3329 98.6628 22.3276L98.3674 22.5969C97.7406 23.1893 96.8451 23.4854 95.6811 23.4854C94.4991 23.4854 93.4156 23.2252 92.4307 22.7046C91.4457 22.184 90.7383 21.2686 90.3085 19.9582C90.022 19.0966 89.8787 18.0376 89.8787 16.781C89.8787 15.3989 90.0488 14.268 90.3891 13.3884C90.801 12.2755 91.4591 11.387 92.3635 10.7228C93.2679 10.0587 94.32 9.72661 95.5199 9.72661C96.7735 9.72661 97.7495 10.0946 98.4479 10.8305C98.5017 10.9023 98.5509 10.9293 98.5957 10.9113C98.6405 10.8934 98.6628 10.8395 98.6628 10.7498V10.4267ZM98.4211 18.7735C98.5823 18.3607 98.6628 17.6875 98.6628 16.7541C98.6628 16.2695 98.6449 15.888 98.6091 15.6098C98.5733 15.3316 98.5017 15.0668 98.3942 14.8155C98.2509 14.4206 98.0226 14.1109 97.7092 13.8866C97.3958 13.6622 97.0153 13.55 96.5676 13.55C95.7258 13.55 95.1259 13.9718 94.7677 14.8155C94.4991 15.3181 94.3648 15.9822 94.3648 16.808C94.3648 17.6875 94.4812 18.3337 94.714 18.7466C94.8752 19.1235 95.117 19.4287 95.4393 19.662C95.7617 19.8954 96.1467 20.0121 96.5944 20.0121C97.5077 20.0121 98.1166 19.5992 98.4211 18.7735ZM112.397 10.4405C112.397 10.2969 112.442 10.1802 112.531 10.0905C112.621 10.0007 112.737 9.95584 112.881 9.95584H116.373C116.516 9.95584 116.633 10.0007 116.722 10.0905C116.812 10.1802 116.856 10.2969 116.856 10.4405V23.3916C116.856 23.5352 116.812 23.6518 116.722 23.7416C116.633 23.8313 116.516 23.8762 116.373 23.8762H112.881C112.737 23.8762 112.621 23.8313 112.531 23.7416C112.442 23.6518 112.397 23.5352 112.397 23.3916V22.7184C112.397 22.6287 112.375 22.5748 112.33 22.5569C112.285 22.5389 112.236 22.5658 112.182 22.6376C111.43 23.607 110.32 24.0916 108.851 24.0916C107.49 24.0916 106.389 23.6608 105.547 22.7992C104.705 21.9376 104.285 20.7349 104.285 19.1912V10.4405C104.285 10.2969 104.329 10.1802 104.419 10.0905C104.508 10.0007 104.625 9.95584 104.768 9.95584H108.26C108.404 9.95584 108.52 10.0007 108.61 10.0905C108.699 10.1802 108.744 10.2969 108.744 10.4405V18.168C108.744 18.7963 108.905 19.2989 109.227 19.6759C109.55 20.0528 109.988 20.2413 110.544 20.2413C111.045 20.2413 111.461 20.0887 111.793 19.7836C112.124 19.4784 112.326 19.0745 112.397 18.5719V10.4405ZM124.25 9.72661C125.432 9.72661 126.506 9.92855 127.473 10.3324C128.44 10.7363 129.201 11.2928 129.757 12.0018C130.312 12.7108 130.589 13.4961 130.589 14.3578V23.3777C130.589 23.5213 130.545 23.638 130.455 23.7278C130.365 23.8175 130.249 23.8624 130.106 23.8624H126.614C126.47 23.8624 126.354 23.8175 126.264 23.7278C126.175 23.638 126.13 23.5213 126.13 23.3777V22.8392C126.13 22.7495 126.108 22.6956 126.063 22.6777C126.018 22.6597 125.969 22.6866 125.915 22.7584C125.199 23.638 124.044 24.0778 122.45 24.0778C121.035 24.0778 119.907 23.7412 119.065 23.0681C118.223 22.395 117.803 21.4032 117.803 20.0928C117.803 18.7107 118.282 17.6426 119.24 16.8887C120.198 16.1348 121.581 15.7579 123.39 15.7579H125.942C126.067 15.7579 126.13 15.695 126.13 15.5694V15.1117C126.13 14.627 125.973 14.2456 125.66 13.9673C125.347 13.6891 124.903 13.55 124.33 13.55C123.918 13.55 123.565 13.6173 123.269 13.7519C122.974 13.8866 122.763 14.0706 122.638 14.3039C122.548 14.4296 122.463 14.5238 122.383 14.5866C122.302 14.6495 122.199 14.6719 122.074 14.6539L118.474 14.1962C118.152 14.1603 118.009 14.0347 118.044 13.8193C118.134 13.0474 118.456 12.3518 119.011 11.7325C119.567 11.1133 120.296 10.6241 121.201 10.2651C122.105 9.90611 123.121 9.72661 124.25 9.72661ZM123.793 20.8737C124.474 20.8737 125.033 20.6987 125.472 20.3486C125.911 19.9986 126.13 19.5364 126.13 18.962V18.3696C126.13 18.244 126.067 18.1812 125.942 18.1812H124.384C123.703 18.1812 123.18 18.2978 122.812 18.5312C122.445 18.7645 122.262 19.1146 122.262 19.5813C122.262 19.9762 122.396 20.2903 122.665 20.5236C122.933 20.757 123.309 20.8737 123.793 20.8737ZM138.785 9.75354C139.358 9.75354 139.823 9.85226 140.182 10.0497C140.414 10.1754 140.504 10.3728 140.45 10.6421L139.859 14.0885C139.841 14.3219 139.725 14.4385 139.51 14.4385C139.42 14.4385 139.349 14.4296 139.295 14.4116C139.08 14.3578 138.811 14.3308 138.489 14.3308C138.203 14.3308 137.988 14.3488 137.844 14.3847C137.289 14.4565 136.819 14.6719 136.434 15.0309C136.049 15.3899 135.857 15.8656 135.857 16.4579V23.3777C135.857 23.5213 135.812 23.638 135.722 23.7278C135.633 23.8175 135.516 23.8624 135.373 23.8624H131.881C131.738 23.8624 131.621 23.8175 131.532 23.7278C131.442 23.638 131.397 23.5213 131.397 23.3777V10.4267C131.397 10.2831 131.442 10.1664 131.532 10.0766C131.621 9.98689 131.738 9.94201 131.881 9.94201H135.373C135.516 9.94201 135.633 9.98689 135.722 10.0766C135.812 10.1664 135.857 10.2831 135.857 10.4267V11.019C135.857 11.1088 135.879 11.1626 135.924 11.1806C135.969 11.1985 136.009 11.1716 136.045 11.0998C136.761 10.2023 137.674 9.75354 138.785 9.75354ZM149.192 5.49934C149.192 5.35574 149.237 5.23906 149.326 5.14931C149.416 5.05956 149.532 5.01469 149.675 5.01469H153.167C153.311 5.01469 153.427 5.05956 153.517 5.14931C153.606 5.23906 153.651 5.35574 153.651 5.49934V23.3777C153.651 23.5213 153.606 23.638 153.517 23.7278C153.427 23.8175 153.311 23.8624 153.167 23.8624H149.675C149.532 23.8624 149.416 23.8175 149.326 23.7278C149.237 23.638 149.192 23.5213 149.192 23.3777V22.7315C149.192 22.6418 149.169 22.5879 149.125 22.57C149.08 22.552 149.031 22.5789 148.977 22.6507C148.296 23.6021 147.276 24.0778 145.915 24.0778C144.75 24.0778 143.676 23.6919 142.691 22.92C141.706 22.1481 141.034 21.1519 140.676 19.9313C140.39 19.0517 140.246 18.0196 140.246 16.8349C140.246 15.5604 140.435 14.4296 140.811 13.4423C141.222 12.3294 141.89 11.4274 142.812 10.7363C143.734 10.0452 144.768 9.69969 145.915 9.69969C147.276 9.69969 148.296 10.1125 148.977 10.9382C149.031 11.0101 149.08 11.037 149.125 11.019C149.169 11.0011 149.192 10.9472 149.192 10.8575V5.49934ZM148.708 19.1235C149.013 18.5491 149.165 17.8132 149.165 16.9157C149.165 15.9284 149.004 15.1386 148.681 14.5462C148.305 13.9359 147.786 13.6308 147.123 13.6308C146.425 13.6308 145.888 13.9449 145.512 14.5732C145.189 15.1655 145.028 15.9463 145.028 16.9157C145.028 17.8311 145.18 18.5761 145.485 19.1505C145.861 19.8146 146.407 20.1467 147.123 20.1467C147.804 20.1467 148.332 19.8056 148.708 19.1235Z" fill="black"/>
<path d="M159.072 5.83325C159.613 5.83325 160.109 5.96027 160.558 6.21432C161.008 6.46837 161.361 6.8128 161.617 7.24762C161.873 7.68243 162.002 8.16854 162.002 8.70595C162.002 9.2629 161.873 9.76611 161.617 10.2156C161.361 10.6651 161.008 11.0192 160.558 11.2782C160.109 11.5371 159.613 11.6666 159.072 11.6666C158.53 11.6666 158.037 11.5371 157.592 11.2782C157.147 11.0192 156.797 10.6651 156.541 10.2156C156.284 9.76611 156.156 9.2629 156.156 8.70595C156.156 8.16854 156.284 7.68243 156.541 7.24762C156.797 6.8128 157.147 6.46837 157.592 6.21432C158.037 5.96027 158.53 5.83325 159.072 5.83325ZM159.072 10.9631C159.487 10.9631 159.865 10.8654 160.203 10.6699C160.541 10.4745 160.807 10.2034 161.001 9.85649C161.194 9.50962 161.291 9.12611 161.291 8.70595C161.291 8.30533 161.194 7.93648 161.001 7.59937C160.807 7.26227 160.541 6.99845 160.203 6.80792C159.865 6.61738 159.487 6.52211 159.072 6.52211C158.666 6.52211 158.296 6.61738 157.962 6.80792C157.628 6.99845 157.365 7.26227 157.172 7.59937C156.978 7.93648 156.881 8.30533 156.881 8.70595C156.881 9.12611 156.978 9.50962 157.172 9.85649C157.365 10.2034 157.628 10.4745 157.962 10.6699C158.296 10.8654 158.666 10.9631 159.072 10.9631ZM160.072 8.22228C160.072 8.53496 159.956 8.75969 159.724 8.89649C159.686 8.9258 159.671 8.96488 159.681 9.01374L159.971 9.8052C159.981 9.83451 159.985 9.86871 159.985 9.90779C159.985 10.0153 159.918 10.069 159.782 10.069H159.637C159.512 10.069 159.425 10.0055 159.376 9.87848L159.101 9.08702C159.091 9.03817 159.057 9.01374 158.999 9.01374H158.941C158.883 9.01374 158.854 9.04305 158.854 9.10168V9.83451C158.854 9.99085 158.777 10.069 158.622 10.069H158.491C158.337 10.069 158.259 9.99085 158.259 9.83451V7.62136C158.259 7.46502 158.337 7.38685 158.491 7.38685H159.246C159.487 7.38685 159.686 7.46746 159.84 7.62869C159.995 7.78991 160.072 7.98777 160.072 8.22228ZM158.941 7.89983C158.883 7.89983 158.854 7.92915 158.854 7.98777V8.47144C158.854 8.53007 158.883 8.55938 158.941 8.55938H159.159C159.255 8.55938 159.333 8.52763 159.391 8.46411C159.449 8.4006 159.478 8.32488 159.478 8.23694C159.478 8.13923 159.449 8.05862 159.391 7.9951C159.333 7.93159 159.255 7.89983 159.159 7.89983H158.941Z" fill="black"/>
<path fill-rule="evenodd" clip-rule="evenodd" d="M17.0158 1.36551L29.7879 8.59472C30.4174 8.95099 30.8057 9.6133 30.8057 10.3305V24.7588C30.8057 25.4761 30.4174 26.1384 29.7879 26.4946L17.0158 33.7239C16.3935 34.0761 15.629 34.0761 15.0067 33.7239L2.23457 26.4946C1.60514 26.1384 1.2168 25.4761 1.2168 24.7588V10.3305C1.2168 9.6133 1.60514 8.95099 2.23457 8.59472L15.0067 1.36551C15.629 1.01325 16.3935 1.01325 17.0158 1.36551Z" stroke="black" stroke-width="1.8"/>
<path d="M25.3333 11.3273L17.993 7.23389C17.3973 6.90162 16.6525 7.31694 16.6525 7.98149V14.4816C16.6525 14.4816 16.6455 14.5573 16.7202 14.631C16.7788 14.6889 16.8669 14.6888 16.8669 14.6888H19.6935C19.6935 14.6888 19.7847 14.6897 19.8486 14.6211C19.9108 14.5544 19.9079 14.4817 19.9079 14.4817V12.2752C19.9079 12.0613 20.1386 11.9204 20.3386 12.012L25.9375 14.577C26.0576 14.6321 26.1961 14.5475 26.1961 14.4191V12.7708C26.1961 12.1753 25.8673 11.625 25.3333 11.3273Z" fill="black"/>
<path d="M25.6194 16.2032H19.9084H19.2875H13.0181H9.35203C9.08172 16.2032 8.86251 15.9914 8.86251 15.7303V13.7396C8.86251 13.4695 9.02355 13.2235 9.27629 13.1078L11.6883 12.0028C11.8789 11.9154 12.0988 12.0497 12.0988 12.2536V14.4817C12.0988 14.596 12.1948 14.6887 12.3132 14.6887H15.1398C15.2582 14.6887 15.3542 14.596 15.3542 14.4817V7.98145C15.3542 7.3169 14.6095 6.90158 14.0137 7.23394L6.67342 11.3273C6.13946 11.6251 5.81055 12.1753 5.81055 12.7708V18.3141C5.81055 18.5726 6.02755 18.7822 6.29512 18.7822H11.6092C11.6332 18.7822 11.6564 18.7844 11.6795 18.7876H13.0181H19.2875H20.2291C20.2475 18.7849 20.2659 18.7821 20.285 18.7821H22.768C22.9761 18.7821 23.1447 18.945 23.1447 19.1459V21.2484C23.1447 21.5169 22.9846 21.7614 22.7335 21.8765L20.3391 22.9733C20.1391 23.065 19.9084 22.924 19.9084 22.7102V20.497C19.9084 20.497 19.914 20.4213 19.85 20.3531C19.7885 20.2875 19.6917 20.2888 19.6917 20.2888H16.8674C16.8674 20.2888 16.7651 20.2848 16.7033 20.3492C16.649 20.4059 16.653 20.497 16.653 20.497V27.0038C16.653 27.6684 17.3978 28.0837 17.9935 27.7514L25.3338 23.658C25.8677 23.3603 26.1966 22.81 26.1966 22.2145V16.7607C26.1966 16.4528 25.9382 16.2032 25.6194 16.2032Z" fill="black"/>
<path d="M15.1398 20.2899H12.3117C12.3117 20.2899 12.2383 20.2797 12.1599 20.3455C12.0892 20.4046 12.0988 20.4971 12.0988 20.4971V22.7318C12.0988 22.9356 11.8789 23.07 11.6883 22.9826L9.2762 21.8776C9.02355 21.7619 8.86251 21.5159 8.86251 21.2457V20.4971C8.86251 20.3826 8.76646 20.2899 8.64807 20.2899H6.02499C5.90659 20.2899 5.81055 20.3826 5.81055 20.4971V22.2146V22.4419H5.82684C5.89883 22.9476 6.20821 23.3987 6.67342 23.6581L14.0137 27.7515C14.6095 28.0837 15.3542 27.6685 15.3542 27.0039V20.4971C15.3542 20.4971 15.3625 20.3931 15.2985 20.3364C15.2352 20.2804 15.1398 20.2899 15.1398 20.2899Z" fill="black"/>
</svg>
